<?xml version="1.0" encoding="UTF-8"?>
<!-- Licensed to the Apache Software Foundation (ASF) under one
or more contributor license agreements.  See the NOTICE file
distributed with this work for additional information
regarding copyright ownership.  The ASF licenses this file
to you under the Apache License, Version 2.0 (the
"License"); you may not use this file except in compliance
with the License.  You may obtain a copy of the License at

  http://www.apache.org/licenses/LICENSE-2.0

Unless required by applicable law or agreed to in writing,
software distributed under the License is distributed on an
"AS IS" BASIS, WITHOUT WARRANTIES OR CONDITIONS OF ANY
KIND, either express or implied.  See the License for the
specific language governing permissions and limitations
under the License. -->
<svg xmlns="http://www.w3.org/2000/svg" x="0px" y="0px"
width="40" height="40"
viewBox="0 0 192 192"
style=" fill:#000000;"><g fill="none" fill-rule="nonzero" stroke="none" stroke-width="1" stroke-linecap="none" stroke-linejoin="none" stroke-miterlimit="10" stroke-dasharray="" stroke-dashoffset="0" font-family="none" font-weight="none" font-size="none" text-anchor="none" style="mix-blend-mode: normal"><path d="M0,192v-192h192v192z" fill="none" stroke="none" stroke-linecap="butt" stroke-linejoin="miter"></path><g><g id="surface1"><path d="M19.78125,116.79375c15.6,-2.025 54.99375,-10.425 75.8625,-44.475l75.375,42.05625c-22.725,38.2875 -49.6125,63.95625 -55.96875,69.75z" fill="#dff0fe" stroke="none" stroke-linecap="butt" stroke-linejoin="miter"></path><path d="M96.46875,75.525l71.2125,39.73125c-20.85,34.5 -44.83125,58.29375 -52.8375,65.79375l-88.725,-62.71875c18.09375,-3.13125 50.8875,-12.825 70.35,-42.80625M94.78125,69.075c-25.36875,44.19375 -81.675,45.9375 -81.675,45.9375l102.13125,72.16875c0,0 32.5125,-28.06875 59.1,-73.70625z" fill="#ffffff" stroke="none" stroke-linecap="butt" stroke-linejoin="miter"></path><path d="M94.875,73.8375l2.0625,-3.7125c1.9875,-3.5625 5.19375,-6.28125 9.01875,-7.66875c1.875,-0.69375 3.825,-1.03125 5.8125,-1.03125c2.90625,0 5.75625,0.75 8.2875,2.15625l11.625,6.4875l39.35625,-59.49375c1.3875,-2.11875 3.73125,-3.375 6.2625,-3.375c1.275,0 2.53125,0.3375 3.65625,0.95625c3.39375,1.89375 4.78125,6.16875 3.15,9.69375l-30,64.725l10.89375,6.09375c3.39375,1.89375 6.05625,4.9125 7.5,8.5125l0.39375,1.0125c1.9125,4.7625 1.575,10.0875 -0.9375,14.5875l-1.725,3.1125z" fill="#98ccfd" stroke="none" stroke-linecap="butt" stroke-linejoin="miter"></path><path d="M177.3,9.6c0.88125,0 1.725,0.225 2.475,0.65625c2.325,1.275 3.2625,4.18125 2.15625,6.58125l-29.0625,62.71875l-1.875,4.03125l3.88125,2.175l8.9625,5.00625c2.90625,1.6125 5.19375,4.21875 6.43125,7.3125l0.39375,0.99375c1.65,4.10625 1.35,8.68125 -0.80625,12.54375l-0.5625,1.0125l-71.15625,-39.7125l0.88125,-1.6125c1.70625,-3.05625 4.4625,-5.4 7.7625,-6.6c1.59375,-0.58125 3.28125,-0.88125 4.9875,-0.88125c2.475,0 4.93125,0.6375 7.10625,1.85625l9.69375,5.4l3.88125,2.175l2.45625,-3.7125l38.1375,-57.65625c0.9375,-1.425 2.53125,-2.2875 4.25625,-2.2875M177.3,4.8c-3.225,0 -6.35625,1.575 -8.25,4.44375l-38.1375,57.6375l-9.675,-5.4c-2.925,-1.63125 -6.1875,-2.45625 -9.46875,-2.45625c-2.23125,0 -4.4625,0.39375 -6.61875,1.1625c-4.3875,1.59375 -8.04375,4.70625 -10.3125,8.775l-3.225,5.79375l79.5375,44.38125l2.90625,-5.19375c2.85,-5.1 3.24375,-11.23125 1.06875,-16.65l-0.39375,-1.0125c-1.65,-4.125 -4.66875,-7.55625 -8.55,-9.7125l-8.9625,-5.00625l29.0625,-62.7c2.175,-4.70625 0.35625,-10.29375 -4.1625,-12.80625c-1.51875,-0.84375 -3.16875,-1.25625 -4.81875,-1.25625z" fill="#ffffff" stroke="none" stroke-linecap="butt" stroke-linejoin="miter"></path><path d="M53.38125,140.2875l9.43125,6.13125c0,0 8.475,-7.06875 30.6,-31.33125c-21.84375,17.9625 -40.03125,25.2 -40.03125,25.2z" fill="#ffffff" stroke="none" stroke-linecap="butt" stroke-linejoin="miter"></path><path d="M87.76875,164.30625l7.4625,5.5125c0,0 9.73125,-9.7875 22.425,-25.70625c-16.1625,12.91875 -29.8875,20.19375 -29.8875,20.19375z" fill="#ffffff" stroke="none" stroke-linecap="butt" stroke-linejoin="miter"></path><path d="M31.2,43.2c0,6.61875 -5.38125,12 -12,12c-6.61875,0 -12,-5.38125 -12,-12c0,-6.61875 5.38125,-12 12,-12c6.61875,0 12,5.38125 12,12z" fill="#dff0fe" stroke="none" stroke-linecap="butt" stroke-linejoin="miter"></path><path d="M19.2,33.6c5.2875,0 9.6,4.3125 9.6,9.6c0,5.2875 -4.3125,9.6 -9.6,9.6c-5.2875,0 -9.6,-4.3125 -9.6,-9.6c0,-5.2875 4.3125,-9.6 9.6,-9.6M19.2,28.8c-7.95,0 -14.4,6.45 -14.4,14.4c0,7.95 6.45,14.4 14.4,14.4c7.95,0 14.4,-6.45 14.4,-14.4c0,-7.95 -6.45,-14.4 -14.4,-14.4z" fill="#ffffff" stroke="none" stroke-linecap="butt" stroke-linejoin="miter"></path><path d="M50.4,76.8c0,3.975 -3.225,7.2 -7.2,7.2c-3.975,0 -7.2,-3.225 -7.2,-7.2c0,-3.975 3.225,-7.2 7.2,-7.2c3.975,0 7.2,3.225 7.2,7.2z" fill="#dff0fe" stroke="none" stroke-linecap="butt" stroke-linejoin="miter"></path><path d="M43.2,72c2.64375,0 4.8,2.15625 4.8,4.8c0,2.64375 -2.15625,4.8 -4.8,4.8c-2.64375,0 -4.8,-2.15625 -4.8,-4.8c0,-2.64375 2.15625,-4.8 4.8,-4.8M43.2,67.2c-5.30625,0 -9.6,4.29375 -9.6,9.6c0,5.30625 4.29375,9.6 9.6,9.6c5.30625,0 9.6,-4.29375 9.6,-9.6c0,-5.30625 -4.29375,-9.6 -9.6,-9.6z" fill="#ffffff" stroke="none" stroke-linecap="butt" stroke-linejoin="miter"></path><path d="M84.54375,86.53125c0,0 3.69375,9.58125 15.225,9.975c2.325,5.4 8.8875,10.425 19.9125,11.79375c2.325,5.5875 11.94375,11.53125 21.4875,10.85625c2.45625,4.63125 11.1375,10.85625 18.84375,11.38125" fill="none" stroke="#ffffff" stroke-linecap="round" stroke-linejoin="round"></path></g></g></g></svg>
