<?xml version="1.0" encoding="UTF-8"?>
<!--
Licensed to the Apache Software Foundation (ASF) under one
or more contributor license agreements.  See the NOTICE file
distributed with this work for additional information
regarding copyright ownership.  The ASF licenses this file
to you under the Apache License, Version 2.0 (the
"License"); you may not use this file except in compliance
with the License.  You may obtain a copy of the License at

  http://www.apache.org/licenses/LICENSE-2.0

Unless required by applicable law or agreed to in writing,
software distributed under the License is distributed on an
"AS IS" BASIS, WITHOUT WARRANTIES OR CONDITIONS OF ANY
KIND, either express or implied.  See the License for the
specific language governing permissions and limitations
under the License.
-->
<svg width="1201.3mm" height="934.98mm" version="1.1" viewBox="0 0 1201.3 934.98" xmlns="http://www.w3.org/2000/svg" xmlns:xlink="http://www.w3.org/1999/xlink"><defs><marker id="marker2110" overflow="visible" orient="auto"><path transform="matrix(-.2 0 0 -.2 -1.2 0)" d="m0 0 5-5-17.5 5 17.5 5z" fill="#96989a" fill-rule="evenodd" stroke="#96989a" stroke-width="1pt"/></marker><marker id="Arrow1Sstart" overflow="visible" orient="auto"><path transform="matrix(.2 0 0 .2 1.2 0)" d="m0 0 5-5-17.5 5 17.5 5z" fill="#c8c8c8" fill-rule="evenodd" stroke="#c8c8c8" stroke-width="1pt"/></marker><marker id="marker26633" overflow="visible" orient="auto"><path transform="matrix(-.3 0 0 -.3 .69 0)" d="m8.7186 4.0337-10.926-4.0177 10.926-4.0177c-1.7455 2.3721-1.7354 5.6175 0 8.0354z" fill="#96989a" fill-rule="evenodd" stroke="#96989a" stroke-linejoin="round" stroke-width=".625"/></marker><marker id="marker26359" overflow="visible" orient="auto"><path transform="matrix(-.3 0 0 -.3 .69 0)" d="m8.7186 4.0337-10.926-4.0177 10.926-4.0177c-1.7455 2.3721-1.7354 5.6175 0 8.0354z" fill="#96989a" fill-rule="evenodd" stroke="#96989a" stroke-linejoin="round" stroke-width=".625"/></marker><marker id="marker26087" overflow="visible" orient="auto"><path transform="matrix(-.3 0 0 -.3 .69 0)" d="m8.7186 4.0337-10.926-4.0177 10.926-4.0177c-1.7455 2.3721-1.7354 5.6175 0 8.0354z" fill="#96989a" fill-rule="evenodd" stroke="#96989a" stroke-linejoin="round" stroke-width=".625"/></marker><marker id="marker25861" overflow="visible" orient="auto"><path transform="matrix(-.3 0 0 -.3 .69 0)" d="m8.7186 4.0337-10.926-4.0177 10.926-4.0177c-1.7455 2.3721-1.7354 5.6175 0 8.0354z" fill="#96989a" fill-rule="evenodd" stroke="#96989a" stroke-linejoin="round" stroke-width=".625"/></marker><marker id="marker25485" overflow="visible" orient="auto"><path transform="matrix(-.3 0 0 -.3 .69 0)" d="m8.7186 4.0337-10.926-4.0177 10.926-4.0177c-1.7455 2.3721-1.7354 5.6175 0 8.0354z" fill="#96989a" fill-rule="evenodd" stroke="#96989a" stroke-linejoin="round" stroke-width=".625"/></marker><marker id="marker25271" overflow="visible" orient="auto"><path transform="matrix(-.3 0 0 -.3 .69 0)" d="m8.7186 4.0337-10.926-4.0177 10.926-4.0177c-1.7455 2.3721-1.7354 5.6175 0 8.0354z" fill="#96989a" fill-rule="evenodd" stroke="#96989a" stroke-linejoin="round" stroke-width=".625"/></marker><marker id="marker25063" overflow="visible" orient="auto"><path transform="matrix(-.3 0 0 -.3 .69 0)" d="m8.7186 4.0337-10.926-4.0177 10.926-4.0177c-1.7455 2.3721-1.7354 5.6175 0 8.0354z" fill="#96989a" fill-rule="evenodd" stroke="#96989a" stroke-linejoin="round" stroke-width=".625"/></marker><marker id="marker24861" overflow="visible" orient="auto"><path transform="matrix(-.3 0 0 -.3 .69 0)" d="m8.7186 4.0337-10.926-4.0177 10.926-4.0177c-1.7455 2.3721-1.7354 5.6175 0 8.0354z" fill="#96989a" fill-rule="evenodd" stroke="#96989a" stroke-linejoin="round" stroke-width=".625"/></marker><marker id="marker24747" overflow="visible" orient="auto"><path transform="matrix(-.3 0 0 -.3 .69 0)" d="m8.7186 4.0337-10.926-4.0177 10.926-4.0177c-1.7455 2.3721-1.7354 5.6175 0 8.0354z" fill="#96989a" fill-rule="evenodd" stroke="#96989a" stroke-linejoin="round" stroke-width=".625"/></marker><marker id="marker24657" overflow="visible" orient="auto"><path transform="matrix(-.3 0 0 -.3 .69 0)" d="m8.7186 4.0337-10.926-4.0177 10.926-4.0177c-1.7455 2.3721-1.7354 5.6175 0 8.0354z" fill="#96989a" fill-rule="evenodd" stroke="#96989a" stroke-linejoin="round" stroke-width=".625"/></marker><marker id="marker23937" overflow="visible" orient="auto"><path transform="matrix(-.3 0 0 -.3 .69 0)" d="m8.7186 4.0337-10.926-4.0177 10.926-4.0177c-1.7455 2.3721-1.7354 5.6175 0 8.0354z" fill="#96989a" fill-rule="evenodd" stroke="#96989a" stroke-linejoin="round" stroke-width=".625"/></marker><marker id="marker23281" overflow="visible" orient="auto"><path transform="matrix(-.3 0 0 -.3 .69 0)" d="m8.7186 4.0337-10.926-4.0177 10.926-4.0177c-1.7455 2.3721-1.7354 5.6175 0 8.0354z" fill="#96989a" fill-rule="evenodd" stroke="#96989a" stroke-linejoin="round" stroke-width=".625"/></marker><marker id="marker22421" overflow="visible" orient="auto"><path transform="matrix(-.3 0 0 -.3 .69 0)" d="m8.7186 4.0337-10.926-4.0177 10.926-4.0177c-1.7455 2.3721-1.7354 5.6175 0 8.0354z" fill="#96989a" fill-rule="evenodd" stroke="#96989a" stroke-linejoin="round" stroke-width=".625"/></marker><marker id="marker22095" overflow="visible" orient="auto"><path transform="matrix(-.3 0 0 -.3 .69 0)" d="m8.7186 4.0337-10.926-4.0177 10.926-4.0177c-1.7455 2.3721-1.7354 5.6175 0 8.0354z" fill="#96989a" fill-rule="evenodd" stroke="#96989a" stroke-linejoin="round" stroke-width=".625"/></marker><marker id="marker19185" overflow="visible" orient="auto"><path transform="matrix(-.3 0 0 -.3 .69 0)" d="m8.7186 4.0337-10.926-4.0177 10.926-4.0177c-1.7455 2.3721-1.7354 5.6175 0 8.0354z" fill="#96989a" fill-rule="evenodd" stroke="#96989a" stroke-linejoin="round" stroke-width=".625"/></marker><marker id="Arrow2Send" overflow="visible" orient="auto"><path transform="matrix(-.3 0 0 -.3 .69 0)" d="m8.7186 4.0337-10.926-4.0177 10.926-4.0177c-1.7455 2.3721-1.7354 5.6175 0 8.0354z" fill="#96989a" fill-rule="evenodd" stroke="#96989a" stroke-linejoin="round" stroke-width=".625"/></marker><marker id="marker13511" overflow="visible" orient="auto"><path transform="matrix(-.2 0 0 -.2 -1.2 0)" d="m0 0 5-5-17.5 5 17.5 5z" fill="#96989a" fill-rule="evenodd" stroke="#96989a" stroke-width="1pt"/></marker><marker id="marker12975" overflow="visible" orient="auto"><path transform="matrix(-.2 0 0 -.2 -1.2 0)" d="m0 0 5-5-17.5 5 17.5 5z" fill="#96989a" fill-rule="evenodd" stroke="#96989a" stroke-width="1pt"/></marker><marker id="marker7015" overflow="visible" orient="auto"><path transform="matrix(-.2 0 0 -.2 -1.2 0)" d="m0 0 5-5-17.5 5 17.5 5z" fill="#96989a" fill-rule="evenodd" stroke="#96989a" stroke-width="1pt"/></marker><marker id="Arrow1Send" overflow="visible" orient="auto"><path transform="matrix(-.2 0 0 -.2 -1.2 0)" d="m0 0 5-5-17.5 5 17.5 5z" fill="#96989a" fill-rule="evenodd" stroke="#96989a" stroke-width="1pt"/></marker><marker id="marker6139" overflow="visible" orient="auto"><path transform="matrix(-1.1,0,0,-1.1,-1.1,0)" d="m8.7186 4.0337-10.926-4.0177 10.926-4.0177c-1.7455 2.3721-1.7354 5.6175 0 8.0354z" fill="#96989a" fill-rule="evenodd" stroke="#96989a" stroke-linejoin="round" stroke-width=".625"/></marker><marker id="marker5739" overflow="visible" orient="auto"><path transform="matrix(-1.1,0,0,-1.1,-1.1,0)" d="m8.7186 4.0337-10.926-4.0177 10.926-4.0177c-1.7455 2.3721-1.7354 5.6175 0 8.0354z" fill="#96989a" fill-rule="evenodd" stroke="#96989a" stroke-linejoin="round" stroke-width=".625"/></marker><linearGradient id="linearGradient5684-2-5"><stop stop-color="#c8c8c8" offset="0"/><stop stop-color="#96989a" offset="1"/></linearGradient><marker id="Arrow2Lend" overflow="visible" orient="auto"><path transform="matrix(-1.1,0,0,-1.1,-1.1,0)" d="m8.7186 4.0337-10.926-4.0177 10.926-4.0177c-1.7455 2.3721-1.7354 5.6175 0 8.0354z" fill="#96989a" fill-rule="evenodd" stroke="#96989a" stroke-linejoin="round" stroke-width=".625"/></marker><linearGradient id="linearGradient5686" x1="-334.13" x2="-279" y1="-110.48" y2="-110.48" gradientTransform="translate(0,-8.4667)" gradientUnits="userSpaceOnUse" xlink:href="#linearGradient5684-2-5"/><linearGradient id="linearGradient5765" x1="-334.13" x2="-279" y1="-110.48" y2="-110.48" gradientTransform="matrix(-1,0,0,1,-613.13,21.696)" gradientUnits="userSpaceOnUse" xlink:href="#linearGradient5684-2-5"/><linearGradient id="linearGradient6273" x1="-334.13" x2="-279" y1="-110.48" y2="-110.48" gradientTransform="matrix(.49225 .42956 -.43517 .48591 -332.34 33.588)" gradientUnits="userSpaceOnUse" xlink:href="#linearGradient5684-2-5"/><linearGradient id="linearGradient6275" x1="-334.13" x2="-279" y1="-110.48" y2="-110.48" gradientTransform="matrix(-.49225 -.42956 -.43517 .48591 -647.28 -215.14)" gradientUnits="userSpaceOnUse" xlink:href="#linearGradient5684-2-5"/><linearGradient id="linearGradient6871" x1="-622.21" x2="-460.32" y1="-242.37" y2="-242.37" gradientTransform="translate(948.8 659.35)" gradientUnits="userSpaceOnUse" xlink:href="#linearGradient5684-2-5"/><linearGradient id="linearGradient7227" x1="-622.21" x2="-460.32" y1="-242.37" y2="-242.37" gradientTransform="rotate(145.38 -287.55 241.71)" gradientUnits="userSpaceOnUse" xlink:href="#linearGradient5684-2-5"/><linearGradient id="linearGradient8077" x1="-110.37" x2="-185.59" y1="-260.14" y2="-174.71" gradientTransform="rotate(95.257 -29.605 447.71)" gradientUnits="userSpaceOnUse" xlink:href="#linearGradient5684-2-5"/><linearGradient id="linearGradient8791" x1="-110.37" x2="-185.59" y1="-260.14" y2="-174.71" gradientTransform="rotate(-84.743 583.84 -316.85)" gradientUnits="userSpaceOnUse" xlink:href="#linearGradient5684-2-5"/><linearGradient id="linearGradient9423" x1="-110.37" x2="-208.91" y1="-260.14" y2="-147.41" gradientTransform="rotate(229.49 395.4 -151.4)" gradientUnits="userSpaceOnUse" xlink:href="#linearGradient5684-2-5"/><linearGradient id="linearGradient9615" x1="-115.11" x2="-161.62" y1="-255.39" y2="-199.52" gradientTransform="rotate(180.83 325.51 88.352)" gradientUnits="userSpaceOnUse" xlink:href="#linearGradient5684-2-5"/><linearGradient id="linearGradient11259" x1="-110.37" x2="-300.23" y1="-260.14" y2="-40.525" gradientTransform="rotate(139.49 170.41 239.33)" gradientUnits="userSpaceOnUse" xlink:href="#linearGradient5684-2-5"/><linearGradient id="linearGradient13229" x1="-639.67" x2="-598.49" y1="-234.92" y2="-188.76" gradientTransform="translate(1123.4 458.05)" gradientUnits="userSpaceOnUse" xlink:href="#linearGradient5684-2-5"/><linearGradient id="linearGradient13621" x1="-639.67" x2="-598.49" y1="-234.92" y2="-188.76" gradientTransform="rotate(180 -89.05 -19.323)" gradientUnits="userSpaceOnUse" xlink:href="#linearGradient5684-2-5"/><linearGradient id="linearGradient14631" x1="-110.37" x2="-208.91" y1="-260.14" y2="-147.41" gradientTransform="rotate(-2.9921 8031.3 -14966)" gradientUnits="userSpaceOnUse" xlink:href="#linearGradient5684-2-5"/><linearGradient id="linearGradient19011" x1="-222.06" x2="-73.803" y1="282.99" y2="282.99" gradientTransform="matrix(.61806 0 0 1 -13.345 -3.5908)" gradientUnits="userSpaceOnUse" xlink:href="#linearGradient5684-2-5"/><linearGradient id="linearGradient19349" x1="-222.06" x2="-73.803" y1="282.99" y2="282.99" gradientTransform="matrix(-.61806 0 0 1 -287.53 -3.5908)" gradientUnits="userSpaceOnUse" xlink:href="#linearGradient5684-2-5"/><linearGradient id="linearGradient22283" x1="-146.73" x2="-234.93" y1="174.59" y2="251.03" gradientTransform="translate(760.82 427.67)" gradientUnits="userSpaceOnUse" xlink:href="#linearGradient5684-2-5"/><linearGradient id="linearGradient22669" x1="-146.73" x2="-234.93" y1="174.59" y2="251.03" gradientTransform="matrix(.65748 -.39008 .75347 .34038 692.1 484.67)" gradientUnits="userSpaceOnUse" xlink:href="#linearGradient5684-2-5"/><linearGradient id="linearGradient23475" x1="-146.73" x2="-234.93" y1="174.59" y2="251.03" gradientTransform="matrix(1.0098 .19586 1.1722 -.12059 670.17 620.13)" gradientUnits="userSpaceOnUse" xlink:href="#linearGradient5684-2-5"/><linearGradient id="linearGradient24137" x1="-146.73" x2="-234.93" y1="174.59" y2="251.03" gradientTransform="matrix(-.3741 0 0 -.3741 595.81 635.74)" gradientUnits="userSpaceOnUse" xlink:href="#linearGradient5684-2-5"/><linearGradient id="linearGradient25855" x1="-222.06" x2="-73.803" y1="282.99" y2="282.99" gradientTransform="matrix(.89338 0 0 1 51.563 -3.5908)" gradientUnits="userSpaceOnUse" xlink:href="#linearGradient5684-2-5"/><linearGradient id="linearGradient25857" x1="-222.06" x2="-73.803" y1="282.99" y2="282.99" gradientTransform="matrix(-.89338 0 0 1 -344.75 -3.5908)" gradientUnits="userSpaceOnUse" xlink:href="#linearGradient5684-2-5"/><linearGradient id="linearGradient26351" x1="-222.06" x2="-73.803" y1="282.99" y2="282.99" gradientTransform="matrix(.82414 0 0 1 193.89 -3.5908)" gradientUnits="userSpaceOnUse" xlink:href="#linearGradient5684-2-5"/><linearGradient id="linearGradient26353" x1="-222.06" x2="-73.803" y1="282.99" y2="282.99" gradientTransform="matrix(-.82414 0 0 1 -171.71 -3.5908)" gradientUnits="userSpaceOnUse" xlink:href="#linearGradient5684-2-5"/><linearGradient id="linearGradient26623" x1="-665.27" x2="323.4" y1="485.69" y2="485.69" gradientTransform="translate(760.82 390.63)" gradientUnits="userSpaceOnUse" xlink:href="#linearGradient5684-2-5"/><radialGradient id="radialGradient3338" cx="1101.2" cy="520.85" r="107.28" gradientTransform="matrix(-.96018 -1.2707 1.0558 -.79784 1509.6 2335.7)" gradientUnits="userSpaceOnUse" xlink:href="#linearGradient5684-2-5"/></defs><rect x="225.61" y="1.9844" width="811.14" height="826.26" fill="none" stroke="#c8c8c8" stroke-width="3.9688"/><g transform="matrix(.26458 0 0 .26458 -79.52 30.064)" fill="none" stroke="#7dc588"><rect x="1530.4" y="177.99" width="322.66" height="199.42" stroke-linejoin="round" stroke-width="15"/><rect x="1548.9" y="195.03" width="285.64" height="165.34" stroke-width="5.1665"/><g stroke-width="15"><path d="m1600.2 431.36h183.19"/><path d="m1739.3 381.07 16.225 47.106"/><path d="m1639.5 381.07-16.225 47.106"/></g></g><g transform="translate(869.33 206.24)"><path d="m-328.92 171.78c-0.41105-0.79088-3.8181-9.5504-4.2598-10.952-0.41055-1.3027-0.80952-1.5971-3.7223-2.7466-1.3824-0.54561-2.9553-1.2147-3.4952-1.4868-0.53991-0.27217-1.3235-0.49485-1.7413-0.49485-0.64272 0-4.1414 1.4351-8.3896 3.4412-0.58209 0.27488-1.7672 0.80822-2.6337 1.1852l-1.5754 0.68545-12.263-12.255 0.61589-1.5716c0.33873-0.86435 0.97049-2.368 1.4039-3.3415s1.5224-3.4155 2.4199-5.4267l1.6319-3.6567-0.59742-1.635c-1.1823-3.2356-1.3202-3.3552-5.6708-4.9156-0.87312-0.31316-1.8256-0.67797-2.1167-0.81068s-1.6603-0.67052-3.0427-1.1951c-1.3824-0.52462-2.6921-1.051-2.9104-1.1698-0.34035-0.18522-0.39687-1.455-0.39687-8.9155v-8.6996l2.5135-1.0157c1.3824-0.55862 3.1088-1.2302 3.8365-1.4924 3.9037-1.4068 5.8656-2.209 6.25-2.5555 0.23605-0.21277 0.81911-1.3955 1.2957-2.6282l0.86652-2.2414-0.4725-1.1217c-0.25987-0.61694-0.74421-1.717-1.0763-2.4446-0.3321-0.7276-1.2252-2.7517-1.9848-4.4979-0.75953-1.7462-1.6738-3.8177-2.0316-4.6032l-0.65065-1.4282 12.37-12.37 4.0941 1.8201c7.1303 3.1699 8.4958 3.7486 8.8453 3.7486 0.30516 0 1.2307-0.36104 3.7155-1.4494 0.43657-0.19121 1.4486-0.61665 2.249-0.94541 0.80037-0.32877 1.6568-0.78764 1.9032-1.0197 0.24639-0.23208 1.102-2.1484 1.9012-4.2584 0.79929-2.1101 1.8565-4.8485 2.3494-6.0854l0.89617-2.249h17.336l1.1738 2.9104c0.64557 1.6007 1.4199 3.5653 1.7207 4.3656 0.30081 0.80036 0.65129 1.6933 0.77884 1.9844 0.12754 0.29104 0.50408 1.2213 0.83674 2.0673l0.60485 1.5382 2.5135 1.0047c1.3824 0.55258 3.0762 1.2539 3.7639 1.5585l1.2504 0.55386 2.0569-0.92149c1.1313-0.50682 2.295-1.0283 2.5861-1.1588s2.1809-0.97475 4.1997-1.876l3.6705-1.6387 12.324 12.316-0.62495 1.348c-0.34373 0.74141-1.2377 2.7768-1.9866 4.523-0.74892 1.7462-1.6583 3.7926-2.0208 4.5475-1.0351 2.1552-1.0623 3.141-0.14522 5.2641 0.43475 1.0065 0.90327 2.1872 1.0412 2.6238 0.22412 0.70959 0.55715 0.90991 3.1411 1.8893 1.5897 0.60257 3.188 1.2145 3.5518 1.3599 2.1803 0.87138 5.4923 2.1522 5.8905 2.278 0.43535 0.13753 0.46189 0.74231 0.39688 9.0426l-0.0697 8.8952-0.92604 0.33623c-0.96557 0.35058-2.9299 1.1064-8.4233 3.2409l-3.264 1.2683-0.9271 2.3812c-1.2705 3.2632-1.3154 3.6479-0.61384 5.2502 0.32858 0.7504 0.69627 1.6025 0.81709 1.8935s1.0578 2.3633 2.0821 4.605 1.8624 4.2667 1.8624 4.5001-2.7153 3.1376-6.034 6.454l-6.034 6.0297-1.1759-0.50665c-0.64671-0.27866-1.7116-0.74454-2.3665-1.0353-2.643-1.1735-7.3278-3.1921-8.1337-3.5047-0.7175-0.27827-0.9987-0.26574-1.7203 0.0767-1.7346 0.8231-3.5441 1.5959-5.0918 2.1746-1.7765 0.66425-1.4217 0.0618-3.9689 6.7388-0.52739 1.3824-1.3492 3.466-1.8263 4.6302l-0.86737 2.1167-8.6314 0.0697c-8.0188 0.0648-8.6487 0.0366-8.874-0.39688zm14.449-3.9212c0.32342-0.22653 0.58804-0.56622 0.58804-0.75486 0-0.31447 1.4068-4.0115 3.5227-9.2575l0.84291-2.0898 2.7781-0.97242c1.528-0.53484 3.9285-1.5508 5.3344-2.2577l2.5563-1.2853 2.6031 1.1338c3.6945 1.6092 4.4824 1.9588 6.5964 2.9272 1.3686 0.62694 2.0491 0.80508 2.5136 0.65797 0.60253-0.19084 7.9129-7.3615 7.9129-7.7617 0-0.34041-2.7182-6.5729-4.9381-11.322-0.37176-0.79538-0.34591-0.92741 0.54394-2.7781 0.87276-1.8152 1.8677-4.3331 2.4403-6.176 0.21487-0.69152 0.56839-0.92287 2.7538-1.8021 3.2274-1.2985 6.3914-2.5088 8.0636-3.0845 0.84086-0.28951 1.442-0.68739 1.6498-1.0919 0.3342-0.65081 0.48445-9.3122 0.18112-10.441-0.18029-0.67125-1.0502-1.1397-4.609-2.4818-7.8235-2.9504-8.2021-3.1449-8.2021-4.2133 0-0.53712-1.1476-3.466-2.2838-5.8285-0.75202-1.5638-0.88644-2.0675-0.67071-2.5135 0.14839-0.30679 0.88791-1.9866 1.6434-3.7328s1.7762-4.0931 2.2684-5.2153c0.49214-1.1221 0.89481-2.2901 0.89481-2.5954 0-0.65811-7.4107-8.1967-8.0577-8.1967-0.22889 0-0.62291 0.11412-0.87559 0.25361-0.38456 0.21228-3.4614 1.5946-9.5088 4.2721l-1.1119 0.49228-2.7296-1.3271c-1.5013-0.72991-3.8584-1.7225-5.2381-2.2057-2.7547-0.96481-2.7041-0.91236-3.8564-3.9987-0.32599-0.87312-0.94784-2.54-1.3819-3.7042s-1.0932-2.8036-1.4648-3.6432l-0.67563-1.5265-5.7383 0.07134c-4.7735 0.05935-5.7758 0.13807-5.9611 0.46822-0.12254 0.21828-0.65363 1.528-1.1802 2.9104s-1.365 3.5851-1.8632 4.8948c-1.4234 3.7419-1.2712 3.5677-3.8785 4.4359-1.2788 0.42579-3.7076 1.4669-5.3974 2.3137l-3.0723 1.5395-1.085-0.48126c-0.59672-0.26469-3.1205-1.3849-5.6085-2.4894s-4.8692-2.0761-5.2917-2.1591c-0.70635-0.13879-1.0713 0.15525-4.5384 3.657-2.0737 2.0944-3.7703 4.0031-3.7703 4.2415s0.16866 0.82453 0.37481 1.3024c0.20614 0.47788 0.55129 1.2856 0.76701 1.7949 0.21571 0.50932 1.0591 2.391 1.8742 4.1816 0.81507 1.7905 1.482 3.3305 1.482 3.4222 0 0.09167 0.25302 0.68935 0.56227 1.3282l0.56227 1.1615-0.95887 2.1632c-0.52737 1.1898-1.2353 2.989-1.5732 3.9983-0.33791 1.0093-0.78452 1.9182-0.99247 2.0199-0.68359 0.33405-1.6744 0.73738-3.5531 1.4463-1.0186 0.3844-2.2093 0.85528-2.6458 1.0464s-1.707 0.66885-2.8232 1.0616c-3.2629 1.1482-3.13 0.85602-3.13 6.8782 0 6.0201-0.13607 5.7205 3.1283 6.8864 1.1171 0.39897 2.3882 0.87603 2.8248 1.0602 0.43656 0.18411 1.9248 0.77461 3.3073 1.3122s2.6839 1.0634 2.8922 1.1683c0.20826 0.10498 0.7008 1.1356 1.0946 2.2902 0.39374 1.1546 1.0827 2.9054 1.531 3.8907 0.86993 1.9119 0.87219 1.8582-0.17567 4.1701-0.29472 0.65025-1.1494 2.611-1.8992 4.3573s-1.6526 3.7269-2.0062 4.4014c-0.35358 0.67454-0.64288 1.4536-0.64288 1.7312 0 0.48347 7.5909 8.2871 8.0612 8.2871 0.30401 0 4.1492-1.6197 8.2238-3.4642 1.899-0.8596 3.5655-1.5629 3.7033-1.5629s1.6798 0.71554 3.4265 1.5901c1.7467 0.87455 4.1801 1.9246 5.4075 2.3333 1.2274 0.40879 2.3149 0.91364 2.4167 1.1219 0.41523 0.84935 0.80447 1.8063 1.5531 3.8182 2.105 5.6573 2.9667 7.7005 3.3755 8.0036 0.32026 0.23745 1.8703 0.33073 5.496 0.33073 4.1424 0 5.1556-0.074 5.638-0.41188zm-10.036-19.032c-0.0708-0.0709-1.0909-0.31131-2.2668-0.53437-2.8299-0.53683-7.4453-2.2136-9.0585-3.2911-0.36995-0.24707-1.6963-1.1242-2.9475-1.9491-3.885-2.5614-7.595-6.7847-9.9219-11.295-1.6542-3.2062-1.7382-2.9104 0.82669-2.9104h2.2389l1.4886 2.3151c3.9756 6.1828 9.6818 10.616 15.845 12.309 4.3158 1.1858 5.2607 1.3359 8.36 1.3282 3.2787-8e-3 4.4879-0.21894 8.4411-1.4714 4.5919-1.4549 7.6779-3.3538 11.261-6.9292 2.115-2.1106 4.4002-5.1536 5.2177-6.9478 0.25448-0.55854 0.44089-0.6039 2.4816-0.6039 1.7529 0 2.2065 0.079 2.2065 0.3843 0 0.54873-1.9752 4.2283-3.2685 6.0888-1.3107 1.8855-5.6281 6.2533-7.4613 7.5484-3.5526 2.5098-7.2791 4.2383-10.904 5.0579-1.2709 0.28733-2.8184 0.63639-3.439 0.77568-1.142 0.25636-8.8613 0.36194-9.0988 0.12446zm0.28812-17.99c-2.1168-0.63718-3.5455-1.282-3.8182-1.7232-0.10921-0.17671 2.6032-0.26646 8.053-0.26646 4.5197 0 8.2177 0.0575 8.2177 0.12783 0 0.3155-2.9594 1.5848-4.7299 2.0287-2.5759 0.6458-5.2121 0.58886-7.7226-0.16682zm-25.912-26.51c0-0.0981 0.49446-1.1399 1.0988-2.3151 4.811-9.3553 13.278-15.586 23.64-17.396 4.3074-0.75235 11.274-0.24363 15.346 1.1206 2.5771 0.86342 7.2695 3.3018 9.2453 4.8043 2.1671 1.648 4.8154 4.2664 6.5479 6.474 1.0698 1.3632 4.1828 6.8073 4.1828 7.315 0 0.0966-0.99198 0.17558-2.2044 0.17558h-2.2044l-0.80106-1.2568c-0.44058-0.69122-1.2191-1.9116-1.7301-2.712-1.1438-1.7915-5.3374-5.8932-7.4798-7.3158-3.0295-2.0117-7.3637-3.7861-10.716-4.3869-2.2391-0.40134-7.9047-0.40224-9.9019-0.0016-6.0308 1.2098-10.914 3.9335-15.366 8.571-2.501 2.6051-2.985 3.2611-4.4102 5.9775l-0.58999 1.1245h-2.3285c-1.2807 1e-5 -2.3285-0.0803-2.3285-0.17841zm22.17-0.3446c0.70755-0.58994 3.0407-1.5009 4.9412-1.9292 1.75-0.39441 4.1269-0.37861 6.0943 0.0405 1.453 0.30954 4.4079 1.5887 5.0139 2.1704 0.15162 0.14556-3.1029 0.23782-8.2021 0.23251-8.3567-9e-3 -8.4465-0.0146-7.8473-0.51422z" fill="#7cc387" stroke-width=".26458"/><text x="-359.03165" y="122.91286" fill="#96989a" font-family="sans-serif" font-size="17.361px" letter-spacing="0px" stroke-width=".43404" word-spacing="0px" style="line-height:1.25" xml:space="preserve"><tspan x="-359.03165" y="122.91286" fill="#96989a" stroke-width=".43404">REST API</tspan></text></g><g transform="matrix(.26458 0 0 .26458 -55.18 106.41)" fill="none" stroke="#7dc588" stroke-width="15"><rect x="1511.1" y="740.94" width="280.17" height="220.95"/><rect x="1741.7" y="775.73" width="11.473" height="11.473"/><rect x="1741.7" y="845.73" width="11.473" height="11.473"/><rect x="1741.7" y="915.73" width="11.473" height="11.473"/><path d="m1511.9 816.81h276.84"/><path d="m1511.9 888.81h276.84"/><path d="m1533.3 690.24h235.75"/><path d="m1539.8 686.52-29.721 50.754"/><path d="m1762.6 686.52 29.721 50.754"/></g><g transform="matrix(.26458 0 0 .26458 -358.88 -141)" fill="none" stroke="#6d6e71" stroke-width="5"><ellipse cx="2452.6" cy="1445.1" rx="57.891" ry="19.863"/><path d="m2510.5 1475.4a57.891 19.863 0 0 1 0.018 0.4909 57.891 19.863 0 0 1-57.891 19.863 57.891 19.863 0 0 1-57.891-19.863 57.891 19.863 0 0 1 0.018-0.4913"/><path d="m2510.5 1506.3a57.891 19.863 0 0 1 0.018 0.4909 57.891 19.863 0 0 1-57.891 19.863 57.891 19.863 0 0 1-57.891-19.863 57.891 19.863 0 0 1 0.018-0.4913"/><path d="m2510.5 1537.2a57.891 19.863 0 0 1 0.018 0.4909 57.891 19.863 0 0 1-57.891 19.863 57.891 19.863 0 0 1-57.891-19.863 57.891 19.863 0 0 1 0.018-0.4913"/><path d="m2394.8 1538.2v-93.93"/><path d="m2510.5 1538.2v-93.93"/></g><text x="347.93295" y="379.1701" fill="#96989a" font-family="sans-serif" font-size="10.583px" letter-spacing="0px" stroke="#96989a" stroke-width=".26458" word-spacing="0px" style="line-height:1.25" xml:space="preserve"><tspan x="347.93295" y="379.1701" fill="#96989a" stroke="#96989a" stroke-width=".26458">TRAFFIC OPS</tspan></text><g transform="translate(760.82 427.67)" fill="none"><path d="m-334.13-118.93h52.917" marker-end="url(#Arrow2Lend)" stroke="url(#linearGradient5686)" stroke-width="1.3229"/><path d="m-279-88.762h-52.917" marker-end="url(#marker5739)" stroke="url(#linearGradient5765)" stroke-width="1.3229"/><path d="m-448.75-163.62 26.048 22.731" marker-end="url(#marker6139)" stroke="url(#linearGradient6273)" stroke-width=".86358"/><path d="m-434.74-125.28-26.048-22.731" marker-end="url(#marker5739)" stroke="url(#linearGradient6275)" stroke-width=".86358"/></g><text x="235.42313" y="260.3898" fill="#96989a" font-family="sans-serif" font-size="7.0981px" letter-spacing="0px" stroke-width=".17745" word-spacing="0px" style="line-height:1.25" xml:space="preserve"><tspan x="235.42313" y="260.3898">TRAFFIC</tspan><tspan x="235.42313" y="269.26245">VAULT DB</tspan></text><text x="324.73077" y="163.75797" fill="#96989a" font-family="sans-serif" font-size="10.583px" letter-spacing="0px" stroke-width=".26458" word-spacing="0px" style="line-height:1.25" xml:space="preserve"><tspan x="324.73077" y="163.75797" fill="#96989a" stroke-width=".26458">TRAFFIC PORTAL</tspan></text><g transform="translate(689.56 815.25)"><g fill="none" stroke="#92c82f" stroke-width="3.9688"><rect x="-659.6" y="-125.22" width="74.127" height="58.46"/><rect x="-598.6" y="-116.02" width="3.0356" height="3.0356"/><rect x="-598.6" y="-97.498" width="3.0356" height="3.0356"/><rect x="-598.6" y="-78.977" width="3.0356" height="3.0356"/><path d="m-659.41-105.15h73.246"/><path d="m-659.41-86.099h73.246"/><path d="m-653.73-138.64h62.377"/><path d="m-652.01-139.62-7.8637 13.429"/><path d="m-593.07-139.62 7.8637 13.429"/></g><text x="-677.79657" y="-47.525311" fill="#96989a" font-family="sans-serif" font-size="10.583px" letter-spacing="0px" stroke-width=".26458" word-spacing="0px" style="line-height:1.25" xml:space="preserve"><tspan x="-677.79657" y="-47.525311" fill="#96989a" stroke-width=".26458">CDN TENANT ORIGIN</tspan></text></g><rect x=".49418" y="627.89" width="133.05" height="154.42" fill="none" stroke="#b8b9b9" stroke-width=".98837"/><text x="12.093245" y="648.11633" fill="#96989a" font-family="sans-serif" font-size="16.571px" letter-spacing="0px" stroke-width=".41428" word-spacing="0px" style="line-height:1.25" xml:space="preserve"><tspan x="12.093245" y="648.11633" fill="#96989a" font-family="sans-serif" stroke-width=".41428">CDN TENANT</tspan></text><text x="231.49927" y="515.61652" fill="#96989a" font-family="sans-serif" font-size="17.609px" letter-spacing="0px" stroke-width=".44023" word-spacing="0px" style="line-height:1.25" xml:space="preserve"><tspan x="231.49927" y="515.61652" fill="#96989a" stroke-width=".44023">SERVICE DATA</tspan></text><g fill="none"><path d="m339.92 494.38 148.51-116.33" marker-end="url(#Arrow1Send)" stroke="url(#linearGradient6871)" stroke-width="3.9688"/><path d="m292.09 531.58-164.1 132.66" marker-end="url(#marker7015)" stroke="url(#linearGradient7227)" stroke-width="3.9688"/><g transform="matrix(.26458 0 0 .26458 289.53 259.35)" stroke="#7dc588" stroke-width="15"><rect x="1511.1" y="740.94" width="280.17" height="220.95"/><rect x="1741.7" y="775.73" width="11.473" height="11.473"/><rect x="1741.7" y="845.73" width="11.473" height="11.473"/><rect x="1741.7" y="915.73" width="11.473" height="11.473"/><path d="m1511.9 816.81h276.84"/><path d="m1511.9 888.81h276.84"/><path d="m1533.3 690.24h235.75"/><path d="m1539.8 686.52-29.721 50.754"/><path d="m1762.6 686.52 29.721 50.754"/></g></g><text x="677.89362" y="530.92383" fill="#96989a" font-family="sans-serif" font-size="10.583px" letter-spacing="0px" stroke-width=".26458" word-spacing="0px" style="line-height:1.25" xml:space="preserve"><tspan x="677.89362" y="530.92383" fill="#96989a" stroke-width=".26458">TRAFFIC MONITOR</tspan></text><path d="m682.67 432.14-78.171-82.728" fill="none" marker-end="url(#marker24747)" stroke="url(#linearGradient8077)" stroke-width="2.6458"/><text transform="rotate(44.287)" x="675.33582" y="-192.07396" fill="#96989a" font-family="sans-serif" font-size="10.583px" letter-spacing="0px" stroke-width=".26458" word-spacing="0px" style="line-height:1.25" xml:space="preserve"><tspan x="675.33582" y="-192.07396" fill="#96989a" stroke-width=".26458">HEALTH INFORMATION</tspan></text><text transform="rotate(48.018)" x="677.29816" y="-160.39516" fill="#96989a" font-family="sans-serif" font-size="10.583px" letter-spacing="0px" stroke-width=".26458" word-spacing="0px" style="line-height:1.25" xml:space="preserve"><tspan x="677.29816" y="-160.39516" fill="#96989a" stroke-width=".26458">CONFIGURATION</tspan></text><path d="m576.71 379.64 78.171 82.728" fill="none" marker-end="url(#marker24657)" stroke="url(#linearGradient8791)" stroke-width="2.6458"/><g transform="matrix(.26458 0 0 .26458 405.49 104.27)" fill="none" stroke="#7dc588" stroke-width="15"><rect x="1511.1" y="740.94" width="280.17" height="220.95"/><rect x="1741.7" y="775.73" width="11.473" height="11.473"/><rect x="1741.7" y="845.73" width="11.473" height="11.473"/><rect x="1741.7" y="915.73" width="11.473" height="11.473"/><path d="m1511.9 816.81h276.84"/><path d="m1511.9 888.81h276.84"/><path d="m1533.3 690.24h235.75"/><path d="m1539.8 686.52-29.721 50.754"/><path d="m1762.6 686.52 29.721 50.754"/></g><text x="797.20111" y="374.29047" fill="#96989a" font-family="sans-serif" font-size="10.583px" letter-spacing="0px" stroke-width=".26458" word-spacing="0px" style="line-height:1.25" xml:space="preserve"><tspan x="797.20111" y="374.29047" fill="#96989a" stroke-width=".26458">TRAFFIC ROUTER</tspan></text><text transform="rotate(.090184)" x="718.02838" y="282.47354" fill="#96989a" font-family="sans-serif" font-size="10.583px" letter-spacing="0px" stroke-width=".26458" word-spacing="0px" style="line-height:1.25" xml:space="preserve"><tspan x="718.02838" y="282.47354" fill="#96989a" stroke-width=".26458">CONFIGURATION</tspan></text><path d="m641.26 303.76 149.71 1.7026" fill="none" marker-end="url(#marker25271)" stroke="url(#linearGradient9423)" stroke-width="2.6458"/><text transform="rotate(-48.571)" x="173.4655" y="886.05933" fill="#96989a" font-family="sans-serif" font-size="10.583px" letter-spacing="0px" stroke-width=".26458" word-spacing="0px" style="line-height:1.25" xml:space="preserve"><tspan x="173.4655" y="886.05933" fill="#96989a" stroke-width=".26458">CONFIGURATION</tspan></text><g fill="none"><path d="m761.11 438.44 47.316-55.19" marker-end="url(#marker25063)" stroke="url(#linearGradient9615)" stroke-width="2.6458"/><path d="m708.32 436.67 1.7026-290.3" marker-end="url(#marker24861)" stroke="url(#linearGradient11259)" stroke-width="2.6458"/><g transform="matrix(.26458 0 0 .26458 275.6 -138.95)" stroke="#7dc588" stroke-width="15"><rect x="1511.1" y="740.94" width="280.17" height="220.95"/><rect x="1741.7" y="775.73" width="11.473" height="11.473"/><rect x="1741.7" y="845.73" width="11.473" height="11.473"/><rect x="1741.7" y="915.73" width="11.473" height="11.473"/><path d="m1511.9 816.81h276.84"/><path d="m1511.9 888.81h276.84"/><path d="m1533.3 690.24h235.75"/><path d="m1539.8 686.52-29.721 50.754"/><path d="m1762.6 686.52 29.721 50.754"/></g></g><text x="673.45245" y="134.68854" fill="#96989a" font-family="sans-serif" font-size="10.583px" letter-spacing="0px" stroke-width=".26458" word-spacing="0px" style="line-height:1.25" xml:space="preserve"><tspan x="673.45245" y="134.68854" fill="#96989a" stroke-width=".26458">TRAFFIC STATS</tspan></text><text x="424.22031" y="217.83687" fill="#96989a" font-family="sans-serif" font-size="17.258px" letter-spacing="0px" stroke-width=".43145" word-spacing="0px" style="line-height:1.25" xml:space="preserve"><tspan x="424.22031" y="217.83687" fill="#96989a" stroke-width=".43145">CDN DATA</tspan></text><path d="m483.68 223.13 41.187 46.157" fill="none" marker-end="url(#marker12975)" stroke="url(#linearGradient13229)" stroke-width="2.6458"/><path d="m461.57 196.26-41.187-46.157" fill="none" marker-end="url(#marker13511)" stroke="url(#linearGradient13621)" stroke-width="2.6458"/><text x="715.08502" y="169.04962" fill="#96989a" font-family="sans-serif" font-size="10.583px" letter-spacing="0px" stroke-width=".26458" word-spacing="0px" style="line-height:1.25" xml:space="preserve"><tspan x="715.08502" y="169.04962"/><tspan x="715.08502" y="182.27879"><tspan x="715.08502" y="182.27879">SERVICE AND</tspan></tspan><tspan x="715.08502" y="195.50754">CACHING</tspan><tspan x="715.08502" y="208.7363">STATISTICS</tspan></text><path d="m668.37 144.79-92.523 117.71" fill="none" marker-end="url(#marker25485)" stroke="url(#linearGradient14631)" stroke-width="2.6458"/><text transform="rotate(-48.272)" x="225.6436" y="572.1076" fill="#96989a" font-family="sans-serif" font-size="10.583px" letter-spacing="0px" stroke-width=".26458" word-spacing="0px" style="line-height:1.25" xml:space="preserve"><tspan x="225.6436" y="572.1076">HEALTH</tspan><tspan x="225.6436" y="585.33679">STATISTICS</tspan></text><path d="m726.66 570.34 0.0516-2.5258 0.48953-23.967" fill="none" marker-end="url(#marker23281)" stroke="url(#linearGradient23475)" stroke-dasharray="10.5833, 5.29167" stroke-width="5.2917"/><path d="m650.7 570.43 32.996-28.596" fill="none" marker-end="url(#marker23937)" stroke="url(#linearGradient24137)" stroke-dasharray="10.5833, 5.29167" stroke-width="5.2917"/><text x="475.52097" y="535.25568" fill="#96989a" font-family="sans-serif" font-size="17.527px" letter-spacing="0px" stroke-width=".43817" word-spacing="0px" style="line-height:1.25" xml:space="preserve"><tspan x="475.52097" y="535.25568" fill="#96989a" stroke-width=".43817">CONFIGURATION</tspan></text><path d="m554.49 410.9c2.1382 2.6727 44.901 100.49 44.901 100.49" fill="none" stroke="#c8c8c8" stroke-width="1.3229"/><path d="m615.96 543.46 78.043 140.05" fill="none" stroke="#c8c8c8" stroke-width="1.3229"/><text x="606.13538" y="591.77362" fill="#96989a" font-family="sans-serif" font-size="15.375px" letter-spacing="0px" stroke-width=".38437" word-spacing="0px" style="line-height:1.25" xml:space="preserve"><tspan x="606.13538" y="591.77362" fill="#96989a" stroke-width=".38437">HEALTH POLLING</tspan></text><g fill="none"><path d="m530.97 415.18-13.898 95.682" stroke="#c8c8c8" stroke-width="1.3229"/><path d="m509.59 548.27-20.312 112.79" stroke="#c8c8c8" stroke-width="1.3229"/><g transform="translate(760.82 427.67)" stroke="#59c3b9" stroke-width="3.9688"><rect x="-325.04" y="261.4" width="74.127" height="58.46"/><rect x="-264.04" y="270.6" width="3.0356" height="3.0356"/><rect x="-264.04" y="289.13" width="3.0356" height="3.0356"/><rect x="-264.04" y="307.65" width="3.0356" height="3.0356"/><path d="m-324.85 281.47h73.246"/><path d="m-324.85 300.52h73.246"/><path d="m-319.17 247.98h62.377"/><path d="m-317.45 247-7.8637 13.429"/><path d="m-258.51 247 7.8637 13.429"/></g></g><text x="473.01218" y="764.55121" fill="#96989a" font-family="sans-serif" font-size="10.583px" letter-spacing="0px" stroke-width=".26458" text-align="center" text-anchor="middle" word-spacing="0px" style="line-height:1.25" xml:space="preserve"><tspan x="473.01218" y="764.55121" text-align="center">TRAFFIC SERVER</tspan><tspan x="473.01218" y="777.78033" text-align="center">MID-TIER</tspan></text><g transform="translate(810.03 429.01)"><g transform="translate(223.97,-1.3363)" fill="none" stroke="#59c3b9" stroke-width="3.9688"><rect x="-325.04" y="261.4" width="74.127" height="58.46"/><rect x="-264.04" y="270.6" width="3.0356" height="3.0356"/><rect x="-264.04" y="289.13" width="3.0356" height="3.0356"/><rect x="-264.04" y="307.65" width="3.0356" height="3.0356"/><path d="m-324.85 281.47h73.246"/><path d="m-324.85 300.52h73.246"/><path d="m-319.17 247.98h62.377"/><path d="m-317.45 247-7.8637 13.429"/><path d="m-258.51 247 7.8637 13.429"/></g><text x="-63.836124" y="335.54047" fill="#96989a" font-family="sans-serif" font-size="10.583px" letter-spacing="0px" stroke-width=".26458" text-align="center" text-anchor="middle" word-spacing="0px" style="line-height:1.25" xml:space="preserve"><tspan x="-63.836124" y="335.54047" text-align="center">TRAFFIC SERVER</tspan><tspan x="-63.836124" y="348.76962" text-align="center">EDGE-TIER</tspan></text></g><g transform="translate(760.82 427.67)" fill="none" stroke-width="4.1601"><path d="m-150.59 279.42h86.904" marker-end="url(#Arrow2Send)" stroke="url(#linearGradient19011)"/><path d="m-150.28 279.42h-86.904" marker-end="url(#marker19185)" stroke="url(#linearGradient19349)"/></g><text x="587.71564" y="729.96606" fill="#96989a" font-family="sans-serif" font-size="17.278px" letter-spacing="0px" stroke-width=".43195" word-spacing="0px" style="line-height:1.25" xml:space="preserve"><tspan x="587.71564" y="729.96606" fill="#96989a" stroke-width=".43195">HTTP</tspan></text><text x="495.99036" y="804.63843" fill="#96989a" font-family="sans-serif" font-size="16.571px" letter-spacing="0px" stroke-width=".41428" word-spacing="0px" style="line-height:1.25" xml:space="preserve"><tspan x="495.99036" y="804.63843" fill="#96989a" font-family="sans-serif" stroke-width=".41428">TRAFFIC SERVER WITH ORT</tspan></text><g fill="none"><g transform="matrix(1.1444 0 0 1 1178.3 50.294)" stroke-width="3.7099"><path d="m-150.59 279.42h86.904" marker-end="url(#Arrow2Send)" stroke="url(#linearGradient19011)"/><path d="m-150.28 279.42h-86.904" marker-end="url(#marker19185)" stroke="url(#linearGradient19349)"/></g><rect x="410.35" y="662.65" width="398.18" height="152.03" stroke="#c8c8c8" stroke-width="1.373"/><path d="m727.18 601.33-0.0376 5.7606-0.35682 54.663" marker-end="url(#marker22421)" stroke="url(#linearGradient22669)" stroke-dasharray="10.5833, 5.29167" stroke-width="5.2917"/><path d="m614.09 602.26-88.199 76.439" marker-end="url(#marker22095)" stroke="url(#linearGradient22283)" stroke-dasharray="10.5833, 5.29167" stroke-width="5.2917"/></g><text x="775.37286" y="56.452293" fill="#96989a" font-family="sans-serif" font-size="26.584px" letter-spacing="0px" stroke-width=".6646" word-spacing="0px" style="line-height:1.25" xml:space="preserve"><tspan x="775.37286" y="56.452293" fill="#96989a" stroke-width=".6646">TRAFFIC CONTROL</tspan></text><g transform="translate(760.82 427.67)" fill="none" stroke="#2bc2eb" stroke-width="3.9688"><rect x="356.7" y="-127.36" width="74.127" height="58.46"/><rect x="417.7" y="-118.16" width="3.0356" height="3.0356"/><rect x="417.7" y="-99.636" width="3.0356" height="3.0356"/><rect x="417.7" y="-81.115" width="3.0356" height="3.0356"/><path d="m356.89-107.29h73.246"/><path d="m356.89-88.237h73.246"/><path d="m362.57-140.78h62.377"/><path d="m364.29-141.76-7.8637 13.429"/><path d="m423.23-141.76 7.8637 13.429"/></g><text x="1120.3984" y="377.84341" fill="#96989a" font-family="sans-serif" font-size="10.583px" letter-spacing="0px" stroke-width=".26458" word-spacing="0px" style="line-height:1.25" xml:space="preserve"><tspan x="1120.3984" y="377.84341" fill="#96989a" stroke-width=".26458">DNS SERVER</tspan></text><text x="968.45398" y="351.4707" fill="#96989a" font-family="sans-serif" font-size="17.014px" letter-spacing="0px" stroke-width=".42534" word-spacing="0px" style="line-height:1.25" xml:space="preserve"><tspan x="968.45398" y="351.4707" fill="#96989a" stroke-width=".42534">DNS</tspan></text><g transform="matrix(.26458 0 0 .26458 706.97 626.48)" fill="none" stroke="#7dc588"><rect x="1530.4" y="177.99" width="322.66" height="199.42" stroke-linejoin="round" stroke-width="15"/><rect x="1548.9" y="195.03" width="285.64" height="165.34" stroke-width="5.1665"/><g stroke-width="15"><path d="m1600.2 431.36h183.19"/><path d="m1739.3 381.07 16.225 47.106"/><path d="m1639.5 381.07-16.225 47.106"/></g></g><text x="1135.5216" y="757.43671" fill="#96989a" font-family="sans-serif" font-size="10.583px" letter-spacing="0px" stroke-width=".26458" word-spacing="0px" style="line-height:1.25" xml:space="preserve"><tspan x="1135.5216" y="757.43671" fill="#96989a" stroke-width=".26458">CLIENT</tspan></text><g transform="translate(-98.98 .0044025)"><g transform="matrix(1.1444 0 0 1 1218 427.67)"><g fill="none" stroke-width="5.0016"><path d="m-146.82 279.42h125.62" marker-end="url(#marker25861)" stroke="url(#linearGradient25855)"/><path d="m-146.37 279.42h-125.62" marker-end="url(#marker26087)" stroke="url(#linearGradient25857)"/></g></g><text x="1027.5483" y="729.96167" fill="#96989a" font-family="sans-serif" font-size="17.278px" letter-spacing="0px" stroke-width=".43195" word-spacing="0px" style="line-height:1.25" xml:space="preserve"><tspan x="1027.5483" y="729.96167" fill="#96989a" stroke-width=".43195">HTTP(S)</tspan></text></g><g transform="matrix(0 -1.1444 1 0 875.16 539.33)" stroke-width="3.7099"><g fill="none" stroke-width="3.7099"><path d="m10.882 279.42h115.88" marker-end="url(#marker25861)" stroke="url(#linearGradient26351)"/><path d="m11.302 279.42h-115.88" marker-end="url(#marker26359)" stroke="url(#linearGradient26353)"/></g></g><text x="1166.1355" y="532.8363" fill="#96989a" font-family="sans-serif" font-size="17.014px" letter-spacing="0px" stroke-width=".42534" word-spacing="0px" style="line-height:1.25" xml:space="preserve"><tspan x="1166.1355" y="532.8363" fill="#96989a" stroke-width=".42534">DNS</tspan></text><path d="m95.241 876.32h988.96" fill="none" marker-end="url(#marker26633)" stroke="url(#linearGradient26623)" stroke-width="6.6146"/><text x="444.31" y="934.31744" fill="#96989a" font-family="sans-serif" font-size="29.02px" letter-spacing="0px" stroke-width=".7255" word-spacing="0px" style="line-height:1.25" xml:space="preserve"><tspan x="444.31" y="934.31744" fill="#96989a" stroke-width=".7255">CDN CONTENT FLOW</tspan></text><path d="m899.19 384.54 206.01 272.63" fill="none" marker-end="url(#marker2110)" marker-start="url(#Arrow1Sstart)" stroke="url(#radialGradient3338)" stroke-dasharray="11.9062, 11.9062" stroke-width="3.9688"/><text transform="rotate(51.635)" x="931.7157" y="-433.33405" fill="#96989a" font-family="sans-serif" font-size="11.095px" letter-spacing="0px" stroke-width=".83215" word-spacing="0px" style="line-height:1.25" xml:space="preserve"><tspan x="931.7157" y="-433.33405" fill="#96989a" stroke-width=".83215">HTTP 302 REDIRECTS</tspan></text><g transform="translate(-778.43 .0044025)"><g transform="matrix(1.1444 0 0 1 1218 427.67)"><g fill="none" stroke-width="5.0016"><path d="m-146.82 279.42h125.62" marker-end="url(#marker25861)" stroke="url(#linearGradient25855)"/><path d="m-146.37 279.42h-125.62" marker-end="url(#marker26087)" stroke="url(#linearGradient25857)"/></g></g><text x="1027.5483" y="729.96167" fill="#96989a" font-family="sans-serif" font-size="17.278px" letter-spacing="0px" stroke-width=".43195" word-spacing="0px" style="line-height:1.25" xml:space="preserve"><tspan x="1027.5483" y="729.96167" fill="#96989a" stroke-width=".43195">HTTP(S)</tspan></text></g></svg>
