<?xml version="1.0" encoding="UTF-8"?>
<!-- Licensed to the Apache Software Foundation (ASF) under one
or more contributor license agreements.  See the NOTICE file
distributed with this work for additional information
regarding copyright ownership.  The ASF licenses this file
to you under the Apache License, Version 2.0 (the
"License"); you may not use this file except in compliance
with the License.  You may obtain a copy of the License at

  http://www.apache.org/licenses/LICENSE-2.0

Unless required by applicable law or agreed to in writing,
software distributed under the License is distributed on an
"AS IS" BASIS, WITHOUT WARRANTIES OR CONDITIONS OF ANY
KIND, either express or implied.  See the License for the
specific language governing permissions and limitations
under the License. -->
<svg width="1391px" height="888px" viewBox="0 0 1391 888" version="1.1" xmlns="http://www.w3.org/2000/svg" xmlns:xlink="http://www.w3.org/1999/xlink">
    <!-- Generator: Sketch 51.2 (57519) - http://www.bohemiancoding.com/sketch -->
    <title>Apache Traffic Control Logo</title>
    <desc>Logo with no text</desc>
    <defs></defs>
    <g id="Artboard-Copy" stroke="none" stroke-width="1" fill="none" fill-rule="evenodd">
        <path d="M933.483367,152.57612 L876.912723,209.146764 C820.077911,152.80267 741.853255,118 655.5,118 C481.806446,118 341,258.806446 341,432.5 C341,606.193554 481.806446,747 655.5,747 C742.585973,747 821.404817,711.604215 878.354845,654.414332 L933.923488,709.982975 C862.496219,781.649964 763.677363,826 654.5,826 C436.623666,826 260,649.376334 260,431.5 C260,213.623666 436.623666,37 654.5,37 C763.453296,37 862.09056,81.1681819 933.483367,152.57612 Z" id="Combined-Shape" fill="#F49224"></path>
        <path d="M416.601816,396 L504.202305,396 C501.454569,407.552665 500,419.606466 500,432 C500,517.604136 569.395864,587 655,587 C740.604136,587 810,517.604136 810,432 C810,346.395864 740.604136,277 655,277 C642.963616,277 631.247667,278.371943 620,280.967982 L620,193.456017 C631.266638,191.837544 642.78551,191 654.5,191 C787.324482,191 895,298.675518 895,431.5 C895,564.324482 787.324482,672 654.5,672 C521.675518,672 414,564.324482 414,431.5 C414,419.438696 414.88787,407.584765 416.601816,396 Z" id="Combined-Shape" fill="#F49224"></path>
        <rect id="Rectangle" fill="#F49224" x="620" y="613" width="80" height="161"></rect>
        <rect id="Rectangle" fill="#F49224" x="620" y="77" width="80" height="161"></rect>
        <rect id="Rectangle" fill="#F49224" transform="translate(394.000000, 436.000000) rotate(90.000000) translate(-394.000000, -436.000000) " x="354" y="360" width="80" height="152"></rect>
    </g>
</svg>