<?xml version="1.0" encoding="UTF-8"?>
<!-- Licensed to the Apache Software Foundation (ASF) under one
or more contributor license agreements.  See the NOTICE file
distributed with this work for additional information
regarding copyright ownership.  The ASF licenses this file
to you under the Apache License, Version 2.0 (the
"License"); you may not use this file except in compliance
with the License.  You may obtain a copy of the License at

  http://www.apache.org/licenses/LICENSE-2.0

Unless required by applicable law or agreed to in writing,
software distributed under the License is distributed on an
"AS IS" BASIS, WITHOUT WARRANTIES OR CONDITIONS OF ANY
KIND, either express or implied.  See the License for the
specific language governing permissions and limitations
under the License. -->
<svg width="1138px" height="298px" viewBox="0 0 1138 298" version="1.1" xmlns="http://www.w3.org/2000/svg" xmlns:xlink="http://www.w3.org/1999/xlink">
    <!-- Generator: Sketch 51.2 (57519) - http://www.bohemiancoding.com/sketch -->
    <title>Apache Traffic Control Logo</title>
    <desc>Logo with white text</desc>
    <defs></defs>
    <g id="Artboard-Copy" stroke="none" stroke-width="1" fill="none" fill-rule="evenodd">
        <path d="M703.209112,68.2121148 L684.811153,86.6100739 C666.334309,68.2506451 640.891241,56.908365 612.802093,56.908365 C556.345279,56.908365 510.577989,102.72846 510.577989,159.250412 C510.577989,215.772364 556.345279,261.592459 612.802093,261.592459 C641.093882,261.592459 666.701276,250.085937 685.209953,231.492308 L703.2822,249.564555 C680.067086,272.875345 647.954659,287.3 612.477056,287.3 C541.659209,287.3 484.25,229.824555 484.25,158.925 C484.25,88.0254452 541.659209,30.55 612.477056,30.55 C647.917443,30.55 679.99971,44.9444077 703.209112,68.2121148 Z" id="Combined-Shape" fill="#F49224"></path>
        <path d="M535.147348,147.363514 L563.676697,147.363514 C562.781826,151.125936 562.308108,155.051565 562.308108,159.087838 C562.308108,186.967023 584.908653,209.567568 612.787838,209.567568 C640.667023,209.567568 663.267568,186.967023 663.267568,159.087838 C663.267568,131.208653 640.667023,108.608108 612.787838,108.608108 C608.86788,108.608108 605.052281,109.054917 601.389189,109.900383 L601.389189,81.3998648 C605.058459,80.8727676 608.809875,80.6 612.625,80.6 C655.882703,80.6 690.95,115.667297 690.95,158.925 C690.95,202.182703 655.882703,237.25 612.625,237.25 C569.367297,237.25 534.3,202.182703 534.3,158.925 C534.3,154.996927 534.589158,151.13639 535.147348,147.363514 Z" id="Combined-Shape" fill="#F49224"></path>
        <rect id="Rectangle" fill="#F49224" x="601.25" y="217.75" width="26" height="52.65"></rect>
        <rect id="Rectangle" fill="#F49224" x="601.25" y="43.55" width="26" height="52.65"></rect>
        <rect id="Rectangle" fill="#F49224" transform="translate(527.800000, 160.550000) rotate(90.000000) translate(-527.800000, -160.550000) " x="514.8" y="135.85" width="26" height="49.4"></rect>
        <path d="M733.82725,232.58225 L745.33875,232.58225 L745.33875,85.93575 L733.82725,85.93575 L733.82725,232.58225 Z M764.85825,85.185 L764.85825,233.333 C764.85825,243.8435 758.1015,250.35 747.84125,250.35 L731.0745,250.35 C720.81425,250.35 714.0575,243.8435 714.0575,233.333 L714.0575,85.185 C714.0575,75.175 720.81425,68.168 731.0745,68.168 L747.84125,68.168 C758.1015,68.168 764.85825,75.175 764.85825,85.185 Z M788.97325,68.168 L806.49075,68.168 L825.00925,159.7595 L825.00925,68.168 L844.52875,68.168 L844.52875,250.35 L827.01125,250.35 L808.49275,156.256 L808.49275,250.35 L788.97325,250.35 L788.97325,68.168 Z M864.89,68.168 L915.19025,68.168 L915.19025,85.93575 L900.67575,85.93575 L900.67575,250.35 L879.4045,250.35 L879.4045,85.93575 L864.89,85.93575 L864.89,68.168 Z M935.5515,68.168 L970.5865,68.168 C979.5955,68.168 986.85275,75.42525 986.85275,84.184 L986.85275,144.7445 C986.85275,150.25 986.102,158.00775 975.84175,159.259 C986.102,160.7605 986.85275,167.51725 986.85275,172.7725 L986.85275,250.35 L967.083,250.35 L967.083,168.01775 L955.32125,168.01775 L955.32125,250.35 L935.5515,250.35 L935.5515,68.168 Z M955.32125,149.99975 L967.083,149.99975 L967.083,85.93575 L955.32125,85.93575 L955.32125,149.99975 Z M1030.7375,232.58225 L1042.249,232.58225 L1042.249,85.93575 L1030.7375,85.93575 L1030.7375,232.58225 Z M1061.7685,85.185 L1061.7685,233.333 C1061.7685,243.8435 1055.01175,250.35 1044.7515,250.35 L1027.98475,250.35 C1017.7245,250.35 1010.96775,243.8435 1010.96775,233.333 L1010.96775,85.185 C1010.96775,75.175 1017.7245,68.168 1027.98475,68.168 L1044.7515,68.168 C1055.01175,68.168 1061.7685,75.175 1061.7685,85.185 Z M1126.17375,250.35 L1085.8835,250.35 L1085.8835,68.168 L1105.65325,68.168 L1105.65325,232.58225 L1126.17375,232.58225 L1126.17375,250.35 Z" id="ONTROL" fill="#FFFFFF"></path>
        <path d="M12.85375,68.168 L63.154,68.168 L63.154,85.93575 L48.6395,85.93575 L48.6395,250.35 L27.36825,250.35 L27.36825,85.93575 L12.85375,85.93575 L12.85375,68.168 Z M83.51525,68.168 L118.55025,68.168 C127.55925,68.168 134.8165,75.42525 134.8165,84.184 L134.8165,144.7445 C134.8165,150.25 134.06575,158.00775 123.8055,159.259 C134.06575,160.7605 134.8165,167.51725 134.8165,172.7725 L134.8165,250.35 L115.04675,250.35 L115.04675,168.01775 L103.285,168.01775 L103.285,250.35 L83.51525,250.35 L83.51525,68.168 Z M103.285,149.99975 L115.04675,149.99975 L115.04675,85.93575 L103.285,85.93575 L103.285,149.99975 Z M158.9315,250.35 L158.9315,84.43425 C158.9315,75.42525 166.18875,68.168 175.19775,68.168 L193.9665,68.168 C202.9755,68.168 210.23275,75.42525 210.23275,84.43425 L210.23275,250.35 L190.463,250.35 L190.463,168.01775 L178.70125,168.01775 L178.70125,250.35 L158.9315,250.35 Z M190.463,149.99975 L190.463,85.93575 L178.70125,85.93575 L178.70125,149.99975 L190.463,149.99975 Z M254.1175,250.35 L234.34775,250.35 L234.34775,68.168 L275.88925,68.168 L275.88925,85.93575 L254.1175,85.93575 L254.1175,149.99975 L272.38575,149.99975 L272.38575,168.01775 L254.1175,168.01775 L254.1175,250.35 Z M316.02025,250.35 L296.2505,250.35 L296.2505,68.168 L337.792,68.168 L337.792,85.93575 L316.02025,85.93575 L316.02025,149.99975 L334.2885,149.99975 L334.2885,168.01775 L316.02025,168.01775 L316.02025,250.35 Z M358.904,250.35 L358.904,68.168 L378.924,68.168 L378.924,250.35 L358.904,250.35 Z M454.5905,233.333 C454.5905,243.8435 448.084,250.35 437.5735,250.35 L420.80675,250.35 C410.29625,250.35 403.78975,243.8435 403.78975,233.333 L403.78975,85.185 C403.78975,75.175 410.29625,68.168 420.80675,68.168 L437.5735,68.168 C448.084,68.168 454.5905,75.175 454.5905,85.185 L454.5905,127.227 L434.82075,127.227 L434.82075,85.93575 L423.5595,85.93575 L423.5595,232.58225 L434.82075,232.58225 L434.82075,191.291 L454.5905,191.291 L454.5905,233.333 Z" id="TRAFFIC" fill="#FFFFFF"></path>
        <path d="M39.0214049,35.6158399 L32.8040166,17.5212885 L26.1962991,35.6158399 L39.0214049,35.6158399 Z M29.9044275,11.4433036 L36.1775771,11.4433036 L51.0379713,52.4 L44.9599864,52.4 L40.8057674,40.1325075 L24.6071012,40.1325075 L20.1740755,52.4 L14.4864199,52.4 L29.9044275,11.4433036 Z M62.1654545,11.4433036 L80.5945739,11.4433036 C84.2376656,11.4433036 87.1743996,12.4702311 89.4048639,14.524117 C91.6353282,16.5780029 92.7505437,19.4636229 92.7505437,23.1810634 C92.7505437,26.3780623 91.7561432,29.1614541 89.7673125,31.5313225 C87.7784818,33.9011908 84.7209329,35.0861072 80.5945739,35.0861072 L67.7137068,35.0861072 L67.7137068,52.4 L62.1654545,52.4 L62.1654545,11.4433036 Z M87.1465301,23.2089441 C87.1465301,20.1978172 86.0313146,18.1532556 83.8008503,17.0751978 C82.5740949,16.4989946 80.8919783,16.2108972 78.75445,16.2108972 L67.7137068,16.2108972 L67.7137068,30.4021556 L78.75445,30.4021556 C81.2451351,30.4021556 83.2664631,29.8724282 84.8184946,28.8129577 C86.370526,27.7534871 87.1465301,25.8855013 87.1465301,23.2089441 Z M122.084101,35.6158399 L115.866713,17.5212885 L109.258995,35.6158399 L122.084101,35.6158399 Z M112.967123,11.4433036 L119.240273,11.4433036 L134.100667,52.4 L128.022682,52.4 L123.868463,40.1325075 L107.669797,40.1325075 L103.236772,52.4 L97.5491159,52.4 L112.967123,11.4433036 Z M161.956549,10.328077 C167.142379,10.328077 171.166448,11.6942159 174.028877,14.4265347 C176.891306,17.1588535 178.480488,20.2628698 178.796471,23.7386767 L173.387622,23.7386767 C172.774244,21.0992939 171.552154,19.008265 169.721314,17.4655271 C167.890475,15.9227893 165.320833,15.151432 162.012311,15.151432 C157.978888,15.151432 154.721529,16.5686849 152.240138,19.4032333 C149.758746,22.2377818 148.518069,26.5824752 148.518069,32.4374441 C148.518069,37.2329424 149.637931,41.1222562 151.877689,44.1055023 C154.117447,47.0887483 157.458447,48.5803489 161.900788,48.5803489 C165.989973,48.5803489 169.103282,47.0097539 171.240811,43.8685166 C172.37463,42.2142556 173.220335,40.0395855 173.777951,37.3444411 L179.1868,37.3444411 C178.703533,41.6566721 177.105057,45.2718288 174.391326,48.1900196 C171.138565,51.7030009 166.752051,53.4594653 161.231652,53.4594653 C156.473328,53.4594653 152.477139,52.0189787 149.242966,49.1379622 C144.986497,45.3275857 142.858294,39.4448243 142.858294,31.4895015 C142.858294,25.4486606 144.456769,20.4952454 147.653768,16.6291072 C151.110988,12.4283994 155.878534,10.328077 161.956549,10.328077 Z M191.624674,11.4433036 L197.228688,11.4433036 L197.228688,28.366867 L218.529516,28.366867 L218.529516,11.4433036 L224.133529,11.4433036 L224.133529,52.4 L218.529516,52.4 L218.529516,33.2459834 L197.228688,33.2459834 L197.228688,52.4 L191.624674,52.4 L191.624674,11.4433036 Z M238.801857,11.4433036 L268.662049,11.4433036 L268.662049,16.4618232 L244.210706,16.4618232 L244.210706,28.8965997 L266.821925,28.8965997 L266.821925,33.6363127 L244.210706,33.6363127 L244.210706,47.5208837 L269.080259,47.5208837 L269.080259,52.4 L238.801857,52.4 L238.801857,11.4433036 Z" id="APACHE" fill="#FFFFFF"></path>
    </g>
</svg>